<svg width="106" height="20" viewBox="0 0 106 20" fill="none" xmlns="http://www.w3.org/2000/svg">
<g clip-path="url(#clip0_75_538)">
<g clip-path="url(#clip1_75_538)">
<g clip-path="url(#clip2_75_538)">
<g clip-path="url(#clip3_75_538)">
<g clip-path="url(#clip4_75_538)">
<path d="M12.8555 19.7431H1.15001C0.86715 19.7431 0.634206 19.6516 0.451178 19.4687C0.26815 19.2857 0.176636 19.0528 0.176636 18.77V1.2299C0.176636 0.947124 0.26815 0.714253 0.451178 0.531283C0.634206 0.348313 0.86715 0.256829 1.15001 0.256829H12.8555C13.1217 0.256829 13.3513 0.343324 13.5443 0.516313C13.734 0.69263 13.8289 0.922172 13.8289 1.20494C13.8289 1.45445 13.734 1.67069 13.5443 1.85366C13.3513 2.03663 13.1217 2.12811 12.8555 2.12811H2.12339V9.01443H9.93535C10.2182 9.01443 10.4512 9.10592 10.6342 9.28888C10.8172 9.47185 10.9087 9.69641 10.9087 9.96255C10.9087 10.2287 10.8172 10.4532 10.6342 10.6362C10.4512 10.8192 10.2182 10.9107 9.93535 10.9107H2.12339V17.8718H12.8555C13.1217 17.8718 13.3513 17.9633 13.5443 18.1463C13.734 18.3293 13.8289 18.5455 13.8289 18.795C13.8289 19.0778 13.734 19.3057 13.5443 19.4786C13.3513 19.655 13.1217 19.7431 12.8555 19.7431ZM23.912 19.7431C23.4961 19.7431 23.1966 19.5352 23.0135 19.1194L15.6009 1.7788C15.4179 1.31306 15.4046 0.942134 15.561 0.666016C15.7207 0.393224 16.0002 0.256829 16.3996 0.256829C16.8155 0.256829 17.115 0.464749 17.2981 0.880589L24.1866 17.3479H23.6375L30.501 0.930489C30.6009 0.680985 30.7257 0.506332 30.8754 0.406531C31.0252 0.306729 31.2248 0.256829 31.4744 0.256829C31.8571 0.256829 32.115 0.401541 32.2481 0.690966C32.3812 0.983717 32.3729 1.31306 32.2232 1.679L24.7856 19.1194C24.6857 19.3522 24.5609 19.5136 24.4112 19.6034C24.2614 19.6965 24.0951 19.7431 23.912 19.7431ZM41.308 19.9926C40.2431 19.9926 39.2564 19.8379 38.3479 19.5285C37.4428 19.2225 36.6574 18.7867 35.9919 18.2211C35.3263 17.6556 34.8188 16.9986 34.4694 16.2501C34.3363 15.9839 34.3313 15.7394 34.4544 15.5165C34.5809 15.2903 34.7939 15.1356 35.0934 15.0524C35.3263 14.9859 35.5543 15.0109 35.7772 15.1273C36.0035 15.2437 36.1749 15.4184 36.2914 15.6512C36.541 16.1336 36.907 16.5661 37.3895 16.9487C37.8721 17.3312 38.4461 17.6257 39.1117 17.8319C39.7772 18.0415 40.5093 18.1463 41.308 18.1463C42.1899 18.1463 42.9719 17.9999 43.6541 17.7072C44.3363 17.4177 44.872 16.9936 45.2614 16.4347C45.6541 15.8791 45.8504 15.2021 45.8504 14.4037C45.8504 13.3891 45.476 12.5158 44.7273 11.7839C43.9785 11.052 42.8055 10.5863 41.2082 10.3867C39.2614 10.1538 37.739 9.55003 36.6408 8.5753C35.5426 7.6039 34.9935 6.41127 34.9935 4.99741C34.9935 3.98276 35.2631 3.10118 35.8022 2.35267C36.3446 1.60415 37.09 1.0253 38.0385 0.616113C38.9869 0.210253 40.0767 0.00732422 41.308 0.00732422C42.2231 0.00732422 43.0551 0.152036 43.8038 0.441461C44.5526 0.734213 45.2048 1.11679 45.7606 1.58918C46.3196 2.0649 46.7739 2.58554 47.1233 3.15108C47.2897 3.41722 47.3429 3.67504 47.283 3.92454C47.2265 4.17405 47.0817 4.36533 46.8488 4.4984C46.5992 4.61484 46.3446 4.63147 46.085 4.5483C45.8288 4.46513 45.6341 4.30712 45.501 4.07424C45.2514 3.69167 44.9386 3.32906 44.5626 2.9864C44.1899 2.64708 43.7373 2.37761 43.2048 2.17801C42.6724 1.97841 42.0318 1.87029 41.283 1.85366C39.9686 1.85366 38.912 2.13144 38.1133 2.687C37.3147 3.24589 36.9153 4.05761 36.9153 5.12216C36.9153 5.68771 37.0651 6.20667 37.3646 6.67907C37.6641 7.15479 38.1583 7.56231 38.8471 7.90164C39.5393 8.24429 40.4677 8.49879 41.6325 8.66512C43.7123 8.96453 45.2547 9.59993 46.2597 10.5713C47.2681 11.5461 47.7722 12.8152 47.7722 14.3788C47.7722 15.277 47.6091 16.0754 47.283 16.774C46.9602 17.4726 46.5027 18.0581 45.9103 18.5305C45.3213 19.0062 44.6308 19.3689 43.8388 19.6184C43.0501 19.8679 42.2065 19.9926 41.308 19.9926ZM57.7755 19.8679C56.4278 19.8679 55.2348 19.5718 54.1965 18.9796C53.1549 18.3908 52.3396 17.5724 51.7506 16.5245C51.1582 15.4766 50.8621 14.279 50.8621 12.9316C50.8621 11.5677 51.1416 10.3651 51.7007 9.32382C52.2564 8.28588 53.0251 7.4675 54.0068 6.86869C54.9885 6.26988 56.1199 5.97048 57.4011 5.97048C58.6657 5.97048 59.7689 6.25658 60.7106 6.82877C61.649 7.4043 62.3762 8.19938 62.892 9.21403C63.4078 10.2287 63.6657 11.3847 63.6657 12.6821C63.6657 12.9483 63.5825 13.1595 63.4161 13.3159C63.2497 13.4756 63.0334 13.5554 62.7672 13.5554H52.1599V11.9586H62.9669L61.8936 12.732C61.9103 11.7673 61.7356 10.9023 61.3695 10.1372C61.0035 9.37205 60.4843 8.77324 59.8121 8.34077C59.1366 7.90829 58.3329 7.69206 57.4011 7.69206C56.4527 7.69206 55.6208 7.91661 54.9053 8.36572C54.1898 8.81483 53.6374 9.43526 53.2481 10.227C52.8554 11.0155 52.6591 11.917 52.6591 12.9316C52.6591 13.9463 52.8804 14.8445 53.3229 15.6263C53.7622 16.4081 54.3645 17.0235 55.1299 17.4726C55.8953 17.9217 56.7772 18.1463 57.7755 18.1463C58.3745 18.1463 58.9785 18.0415 59.5875 17.8319C60.1931 17.6257 60.679 17.3645 61.0451 17.0485C61.2281 16.8988 61.4361 16.8189 61.669 16.8089C61.902 16.8023 62.1016 16.8655 62.268 16.9986C62.4843 17.1982 62.5975 17.4144 62.6075 17.6473C62.6141 17.8801 62.5176 18.0798 62.3179 18.2461C61.7689 18.7118 61.07 19.0977 60.2214 19.4038C59.3728 19.7132 58.5575 19.8679 57.7755 19.8679ZM72.6008 19.8679C71.253 19.8679 70.0583 19.5718 69.0168 18.9796C67.9785 18.3908 67.1632 17.5724 66.5708 16.5245C65.9818 15.4766 65.6873 14.279 65.6873 12.9316C65.6873 11.5677 65.9652 10.3651 66.5209 9.32382C67.08 8.28588 67.8504 7.4675 68.8321 6.86869C69.8138 6.26988 70.9452 5.97048 72.2264 5.97048C73.491 5.97048 74.5941 6.25658 75.5359 6.82877C76.4743 7.4043 77.2014 8.19938 77.7172 9.21403C78.233 10.2287 78.4909 11.3847 78.4909 12.6821C78.4909 12.9483 78.4078 13.1595 78.2414 13.3159C78.075 13.4756 77.8587 13.5554 77.5924 13.5554H66.9851V11.9586H77.7921L76.7189 12.732C76.7355 11.7673 76.5608 10.9023 76.1948 10.1372C75.8287 9.37205 75.3079 8.77324 74.6324 8.34077C73.9602 7.90829 73.1582 7.69206 72.2264 7.69206C71.278 7.69206 70.446 7.91661 69.7306 8.36572C69.0151 8.81483 68.461 9.43526 68.0683 10.227C67.679 11.0155 67.4843 11.917 67.4843 12.9316C67.4843 13.9463 67.7039 14.8445 68.1432 15.6263C68.5858 16.4081 69.1898 17.0235 69.9552 17.4726C70.7206 17.9217 71.6024 18.1463 72.6008 18.1463C73.1998 18.1463 73.8038 18.0415 74.4128 17.8319C75.0184 17.6257 75.5043 17.3645 75.8703 17.0485C76.0533 16.8988 76.2613 16.8189 76.4943 16.8089C76.7272 16.8023 76.9269 16.8655 77.0933 16.9986C77.3096 17.1982 77.4211 17.4144 77.4277 17.6473C77.4377 17.8801 77.3429 18.0798 77.1432 18.2461C76.5941 18.7118 75.8953 19.0977 75.0467 19.4038C74.1981 19.7132 73.3828 19.8679 72.6008 19.8679ZM91.8437 7.4675L83.3079 15.1772L82.1349 13.9047L90.6706 6.19503C90.8703 6.01206 91.0783 5.9239 91.2946 5.93056C91.5109 5.94054 91.7106 6.04533 91.8936 6.24493C92.0766 6.44454 92.1631 6.65578 92.1531 6.87867C92.1465 7.10489 92.0433 7.30117 91.8437 7.4675ZM82.6839 19.7431C82.4011 19.7431 82.1715 19.655 81.9951 19.4786C81.8221 19.3057 81.7355 19.0778 81.7355 18.795V1.20494C81.7355 0.922172 81.8221 0.69263 81.9951 0.516313C82.1715 0.343324 82.4011 0.256829 82.6839 0.256829C82.9668 0.256829 83.1948 0.343324 83.3678 0.516313C83.5442 0.69263 83.6324 0.922172 83.6324 1.20494V18.795C83.6324 19.0778 83.5442 19.3057 83.3678 19.4786C83.1948 19.655 82.9668 19.7431 82.6839 19.7431ZM91.9185 19.6184C91.7022 19.8013 91.4776 19.8812 91.2447 19.8579C91.0117 19.8313 90.8121 19.7098 90.6457 19.4936L85.0799 12.6572L86.4277 11.4596L92.0433 18.3708C92.2097 18.5704 92.2846 18.7817 92.268 19.0046C92.2513 19.2308 92.1348 19.4354 91.9185 19.6184Z" fill="#21D57C" stroke="#21D57C" stroke-width="0.5"/>
</g>
</g>
</g>
<g clip-path="url(#clip5_75_538)">
<g clip-path="url(#clip6_75_538)">
<path d="M105.679 4.46456C105.673 4.40235 105.636 4.3472 105.582 4.31667L103.443 3.11921C103.364 3.07512 103.265 3.09249 103.205 3.16062L97.0389 10.2708C96.9891 10.3282 96.9782 10.4095 97.0109 10.478C97.0435 10.5463 97.1099 10.5912 97.1895 10.5864L100.99 10.4601L98.8047 13.7466L98.3234 12.8586C98.2854 12.7888 98.2081 12.7491 98.1291 12.7605C98.0501 12.7716 97.9863 12.8304 97.9691 12.9081L97.1315 16.6726C97.1157 16.7436 97.1418 16.8176 97.1987 16.863C97.2332 16.8907 97.2752 16.9048 97.3178 16.9048C97.3457 16.9048 97.3736 16.8989 97.3995 16.8865L100.876 15.2425C100.948 15.2085 100.991 15.1341 100.985 15.0553C100.979 14.9763 100.925 14.9093 100.849 14.887L99.8744 14.6L104.924 8.86397C104.974 8.80768 104.985 8.72772 104.954 8.65921C104.923 8.59089 104.855 8.547 104.781 8.547H101.014L105.612 4.62849C105.66 4.58803 105.685 4.52677 105.679 4.46456Z" fill="#12141D"/>
</g>
</g>
</g>
</g>
<defs>
<clipPath id="clip0_75_538">
<rect width="105.505" height="19.9853" fill="white" transform="translate(0.174133 0.00732422)"/>
</clipPath>
<clipPath id="clip1_75_538">
<rect width="105.505" height="19.9853" fill="white" transform="translate(0.174133 0.00732422)"/>
</clipPath>
<clipPath id="clip2_75_538">
<rect width="92.0986" height="19.9853" fill="white" transform="translate(0.174133 0.00732422)"/>
</clipPath>
<clipPath id="clip3_75_538">
<rect width="92.0986" height="19.9853" fill="white" transform="translate(0.174133 0.00732422)"/>
</clipPath>
<clipPath id="clip4_75_538">
<rect width="92.0986" height="19.9853" fill="white" transform="translate(0.174133 0.00732422)"/>
</clipPath>
<clipPath id="clip5_75_538">
<rect width="8.68732" height="13.8098" fill="white" transform="translate(96.9922 3.09497)"/>
</clipPath>
<clipPath id="clip6_75_538">
<rect width="8.68732" height="13.8098" fill="white" transform="translate(96.9922 3.09497)"/>
</clipPath>
</defs>
</svg>
