<svg width="45" height="46" viewBox="0 0 45 46" fill="none" xmlns="http://www.w3.org/2000/svg">
<circle opacity="0.2" cx="22.5" cy="23.375" r="22.5" fill="#45C646"/>
<path d="M25.436 27.4249H19.7136C17.5296 27.4249 15.7499 25.6452 15.7499 23.4613V16.4001C15.7499 16.1114 15.9862 15.8751 16.275 15.8751H28.8747C29.1634 15.8751 29.3997 16.1114 29.3997 16.4001V23.4613C29.3997 25.6452 27.62 27.4249 25.436 27.4249ZM16.8001 16.9251V23.4612C16.8001 25.0677 18.1073 26.3749 19.7137 26.3749H25.4362C27.0427 26.3749 28.3499 25.0677 28.3499 23.4612V16.9251H16.8001Z" fill="#45C646" stroke="#45C646" stroke-width="0.75"/>
<path d="M24.6747 30.5751H20.4748C20.186 30.5751 19.9498 30.3388 19.9498 30.0501V26.9001C19.9498 26.6114 20.186 26.3751 20.4748 26.3751H24.6747C24.9634 26.3751 25.1997 26.6114 25.1997 26.9001V30.0501C25.1997 30.3388 24.9635 30.5751 24.6747 30.5751ZM20.9998 29.5251H24.1497V27.4251H20.9998V29.5251Z" fill="#45C646" stroke="#45C646" stroke-width="0.75"/>
<path d="M19.4253 16.9252C19.1365 16.9252 18.9003 16.6889 18.9003 16.4001V11.15C18.9003 10.8613 19.1365 10.625 19.4253 10.625C19.714 10.625 19.9503 10.8612 19.9503 11.15V16.4001C19.9503 16.6889 19.714 16.9252 19.4253 16.9252Z" fill="#45C646" stroke="#45C646" stroke-width="0.75"/>
<path d="M25.7245 16.9252C25.4358 16.9252 25.1995 16.6889 25.1995 16.4001V11.15C25.1995 10.8613 25.4358 10.625 25.7245 10.625C26.0133 10.625 26.2496 10.8612 26.2496 11.15V16.4001C26.2496 16.6889 26.0133 16.9252 25.7245 16.9252Z" fill="#45C646" stroke="#45C646" stroke-width="0.75"/>
<path d="M22.5748 36.875C22.2861 36.875 22.0498 36.6388 22.0498 36.35V30.0502C22.0498 29.7614 22.2861 29.5251 22.5748 29.5251C22.8636 29.5251 23.0998 29.7614 23.0998 30.0502V36.35C23.0998 36.6388 22.8636 36.875 22.5748 36.875Z" fill="#45C646" stroke="#45C646" stroke-width="0.75"/>
</svg>
