<svg width="45" height="46" viewBox="0 0 45 46" fill="none" xmlns="http://www.w3.org/2000/svg">
<circle opacity="0.2" cx="22.5" cy="23.125" r="22.5" fill="#008EFF"/>
<path d="M22.6405 13.375C22.4356 13.3758 22.2396 13.4564 22.0953 13.5992C21.9512 13.7417 21.8706 13.9348 21.8713 14.1359C21.8721 14.5528 22.2157 14.8907 22.6405 14.8924H23.3929V15.9095C19.6556 16.9069 16.8958 20.265 16.8958 24.2412C16.8958 29.0003 20.8488 32.875 25.7002 32.875C30.5515 32.875 34.5001 29.0004 34.5001 24.2412C34.5001 20.2654 31.7443 16.9073 28.009 15.9095L28.0088 14.8924H28.7614C29.186 14.8907 29.5296 14.5528 29.5304 14.1359C29.5311 13.9348 29.4505 13.7417 29.3064 13.5992C29.1621 13.4564 28.9661 13.3758 28.7614 13.375H22.6405ZM24.9309 14.8924H26.4644V15.6415C26.2126 15.6199 25.9573 15.6074 25.7 15.6074C25.4406 15.6074 25.1847 15.6197 24.931 15.6415L24.9309 14.8924ZM11.9726 16.5312C11.5478 16.5321 11.2036 16.8694 11.2021 17.2862C11.2012 17.4876 11.282 17.6809 11.4265 17.8236C11.5711 17.9664 11.7675 18.0467 11.9726 18.0472H17.5454C17.7501 18.0463 17.9461 17.9657 18.0904 17.823C18.2345 17.6804 18.3151 17.4874 18.3144 17.2862C18.3127 16.87 17.9694 16.5329 17.5455 16.5312H11.9726ZM25.7002 17.1249C29.7179 17.1249 32.956 20.3025 32.956 24.2411C32.956 28.1798 29.718 31.359 25.7002 31.359C21.6823 31.359 18.4399 28.1799 18.4399 24.2411C18.4399 20.3024 21.6824 17.1249 25.7002 17.1249ZM25.6203 18.8362H25.62C25.4154 18.8354 25.2187 18.9145 25.0733 19.0562C24.9279 19.1977 24.8459 19.3901 24.8452 19.5912V24.9237C24.8454 25.125 24.9275 25.3179 25.0729 25.4598C25.2183 25.6017 25.4152 25.681 25.62 25.6801H28.7671C28.972 25.681 29.1689 25.6017 29.3143 25.4598C29.4597 25.3179 29.5417 25.125 29.5422 24.9237C29.5428 24.7217 29.4614 24.5275 29.316 24.3848C29.1704 24.2418 28.9728 24.1619 28.7671 24.1627H26.3907V19.5912C26.389 19.1744 26.0448 18.837 25.62 18.8362L25.6203 18.8362ZM9.85289 20.0058C9.64782 20.0062 9.45138 20.0866 9.30684 20.2293C9.1623 20.3721 9.08153 20.5654 9.08239 20.7667C9.08389 21.1835 9.42811 21.5209 9.85291 21.5217H15.4197C15.6243 21.5225 15.821 21.4434 15.9664 21.3018C16.1118 21.1603 16.1939 20.9678 16.1947 20.7667C16.1954 20.5647 16.114 20.3706 15.9686 20.2278C15.823 20.0849 15.6254 20.0049 15.4197 20.0058L9.85289 20.0058ZM9.02661 23.4803C8.82047 23.479 8.62251 23.5588 8.47668 23.7017C8.33085 23.8447 8.24921 24.0388 8.25007 24.2412C8.25071 24.4426 8.333 24.6352 8.47883 24.7769C8.62444 24.9184 8.82154 24.9975 9.02661 24.9962H14.5934C14.798 24.9971 14.9947 24.918 15.1401 24.7763C15.2855 24.6348 15.3676 24.4424 15.3684 24.2412C15.3691 24.0393 15.2877 23.8451 15.1423 23.7024C14.9966 23.5594 14.7991 23.4795 14.5934 23.4803L9.02661 23.4803ZM9.85289 26.9607C9.42811 26.9616 9.08391 27.2989 9.08236 27.7157C9.0815 27.9171 9.16228 28.1104 9.30682 28.2531C9.45136 28.3959 9.64781 28.4762 9.85287 28.4767H15.4197C15.6254 28.4775 15.8229 28.3976 15.9685 28.2546C16.1139 28.1118 16.1954 27.9177 16.1947 27.7157C16.1938 27.5146 16.1118 27.3222 15.9664 27.1807C15.821 27.039 15.6243 26.9599 15.4197 26.9607L9.85289 26.9607ZM11.9729 30.4353C11.7678 30.4357 11.5714 30.5161 11.4269 30.6588C11.2823 30.8016 11.2015 30.9949 11.2024 31.1962C11.2039 31.613 11.5481 31.9504 11.9729 31.9512H17.5458C17.9697 31.9495 18.3131 31.6124 18.3148 31.1962C18.3154 30.9951 18.2349 30.802 18.0908 30.6595C17.9464 30.5167 17.7504 30.4361 17.5458 30.4353H11.9729Z" fill="#008EFF"/>
</svg>
