<svg width="145" height="46" viewBox="0 0 145 46" fill="none" xmlns="http://www.w3.org/2000/svg">
<rect width="144.75" height="45.75" rx="22.875" fill="#18181B"/>
<path d="M59.5688 33.5522L58.2732 30.2232H52.99L51.7281 33.5522H49.9614L54.7062 21.6316H56.6075L61.3523 33.5522H59.5688ZM55.6148 23.3465L53.5789 28.6932H57.6843L55.6148 23.3465ZM64.3536 36.7467H62.7888V25.465H64.32V26.726C64.5555 26.3001 64.9088 25.9526 65.38 25.6836C65.8511 25.4146 66.4007 25.2801 67.0289 25.2801C68.1954 25.2801 69.104 25.678 69.7546 26.4738C70.4164 27.2696 70.7473 28.2784 70.7473 29.5002C70.7473 30.7332 70.4052 31.7532 69.7209 32.5602C69.0479 33.3672 68.1337 33.7708 66.9784 33.7708C66.3839 33.7708 65.8567 33.6475 65.3968 33.4009C64.9369 33.1543 64.5892 32.8404 64.3536 32.4593V36.7467ZM69.132 29.5002C69.132 28.6819 68.9133 28.0094 68.4758 27.4826C68.0496 26.9446 67.4719 26.6756 66.7428 26.6756C66.0249 26.6756 65.4417 26.9446 64.993 27.4826C64.5555 28.0094 64.3368 28.6819 64.3368 29.5002C64.3368 30.3408 64.5555 31.0302 64.993 31.5682C65.4417 32.095 66.0249 32.3584 66.7428 32.3584C67.4607 32.3584 68.0384 32.095 68.4758 31.5682C68.9133 31.0302 69.132 30.3408 69.132 29.5002ZM74.3273 36.7467H72.7626V25.465H74.2937V26.726C74.5292 26.3001 74.8826 25.9526 75.3537 25.6836C75.8248 25.4146 76.3744 25.2801 77.0026 25.2801C78.1691 25.2801 79.0777 25.678 79.7283 26.4738C80.3901 27.2696 80.721 28.2784 80.721 29.5002C80.721 30.7332 80.3789 31.7532 79.6947 32.5602C79.0216 33.3672 78.1075 33.7708 76.9521 33.7708C76.3576 33.7708 75.8304 33.6475 75.3705 33.4009C74.9106 33.1543 74.5629 32.8404 74.3273 32.4593V36.7467ZM79.1058 29.5002C79.1058 28.6819 78.887 28.0094 78.4496 27.4826C78.0233 26.9446 77.4457 26.6756 76.7166 26.6756C75.9987 26.6756 75.4154 26.9446 74.9667 27.4826C74.5292 28.0094 74.3105 28.6819 74.3105 29.5002C74.3105 30.3408 74.5292 31.0302 74.9667 31.5682C75.4154 32.095 75.9987 32.3584 76.7166 32.3584C77.4344 32.3584 78.0121 32.095 78.4496 31.5682C78.887 31.0302 79.1058 30.3408 79.1058 29.5002ZM94.7163 24.3385L93.2357 24.8597C93.1572 24.3441 92.9048 23.879 92.4786 23.4642C92.0523 23.0383 91.4634 22.8253 90.7119 22.8253C90.0501 22.8253 89.5005 23.0159 89.063 23.397C88.6251 23.7781 88.4064 24.2489 88.4064 24.8093C88.4064 25.2464 88.5354 25.6163 88.7934 25.919C89.063 26.2216 89.4444 26.429 89.9379 26.5411L91.7214 26.9278C92.7085 27.1407 93.4713 27.5442 94.0097 28.1383C94.5481 28.7212 94.8173 29.4329 94.8173 30.2736C94.8173 31.2376 94.4359 32.067 93.6732 32.762C92.9104 33.4569 91.9177 33.8044 90.6951 33.8044C89.3602 33.8044 88.3111 33.4569 87.5483 32.762C86.7968 32.0558 86.3593 31.2207 86.2359 30.2568L87.8175 29.7524C87.8848 30.4698 88.1652 31.075 88.6588 31.5682C89.1527 32.0614 89.8257 32.308 90.6782 32.308C91.4634 32.308 92.0691 32.1287 92.4954 31.77C92.9216 31.4113 93.1348 30.9573 93.1348 30.4081C93.1348 29.9598 92.9833 29.573 92.6805 29.248C92.3776 28.9117 91.9345 28.6819 91.3513 28.5586L89.6519 28.1888C88.7653 27.9982 88.0587 27.6227 87.5315 27.0623C87.0043 26.5018 86.7407 25.7901 86.7407 24.927C86.7407 23.9854 87.1221 23.1616 87.8848 22.4554C88.6588 21.7381 89.5902 21.3794 90.6782 21.3794C91.9009 21.3794 92.8375 21.6764 93.4881 22.2705C94.1387 22.8646 94.5481 23.5539 94.7163 24.3385ZM98.8722 22.9094V25.465H100.622V26.8941H98.8722V31.0974C98.8722 31.4785 98.9564 31.7588 99.1246 31.9381C99.3041 32.1175 99.5957 32.2071 99.9995 32.2071C100.235 32.2071 100.443 32.1847 100.622 32.1399V33.4849C100.353 33.5858 99.9939 33.6362 99.5453 33.6362C98.8498 33.6362 98.3002 33.4345 97.8964 33.031C97.4925 32.6275 97.2906 32.0614 97.2906 31.3328V26.8941H95.7427V25.465H96.1802C96.5952 25.465 96.9037 25.3529 97.1056 25.1287C97.3187 24.8934 97.4252 24.5907 97.4252 24.2208V22.9094H98.8722ZM104.316 31.6355C104.81 32.1399 105.41 32.3921 106.117 32.3921C106.823 32.3921 107.418 32.1399 107.9 31.6355C108.394 31.1199 108.641 30.4081 108.641 29.5002C108.641 28.6035 108.394 27.9029 107.9 27.3985C107.418 26.8829 106.823 26.6251 106.117 26.6251C105.41 26.6251 104.81 26.8829 104.316 27.3985C103.834 27.9029 103.593 28.6035 103.593 29.5002C103.593 30.4081 103.834 31.1199 104.316 31.6355ZM103.139 26.4402C103.924 25.6219 104.917 25.2128 106.117 25.2128C107.317 25.2128 108.304 25.6219 109.078 26.4402C109.863 27.2472 110.256 28.2672 110.256 29.5002C110.256 30.7444 109.869 31.7756 109.095 32.5938C108.321 33.4009 107.328 33.8044 106.117 33.8044C104.905 33.8044 103.913 33.4009 103.139 32.5938C102.365 31.7756 101.978 30.7444 101.978 29.5002C101.978 28.2672 102.365 27.2472 103.139 26.4402ZM116.772 25.3809V27.0623C116.537 27.0286 116.307 27.0118 116.082 27.0118C114.602 27.0118 113.861 27.8413 113.861 29.5002V33.5522H112.28V25.465H113.828V26.8773C114.321 25.8461 115.129 25.3305 116.251 25.3305C116.43 25.3305 116.604 25.3473 116.772 25.3809ZM119.402 28.6763H123.827C123.804 28.0711 123.602 27.5779 123.221 27.1968C122.84 26.8045 122.301 26.6083 121.606 26.6083C120.978 26.6083 120.462 26.8157 120.058 27.2304C119.654 27.6339 119.435 28.1159 119.402 28.6763ZM124.062 30.778L125.425 31.2488C125.19 31.9998 124.752 32.6162 124.113 33.0982C123.473 33.569 122.699 33.8044 121.791 33.8044C120.658 33.8044 119.693 33.4177 118.897 32.6443C118.112 31.8596 117.719 30.806 117.719 29.4834C117.719 28.2504 118.101 27.2304 118.863 26.4234C119.626 25.6163 120.535 25.2128 121.589 25.2128C122.812 25.2128 123.765 25.5995 124.449 26.3729C125.134 27.1351 125.476 28.1607 125.476 29.4497C125.476 29.6515 125.464 29.8196 125.442 29.9541H119.351C119.362 30.6715 119.598 31.26 120.058 31.7195C120.529 32.1791 121.107 32.4089 121.791 32.4089C122.946 32.4089 123.703 31.8653 124.062 30.778Z" fill="white"/>
<path opacity="0.6" d="M51.1968 14.3174V11.4159H51.9083C52.6518 11.4159 53.2671 11.8835 53.2671 12.8699C53.2671 13.8562 52.6454 14.3174 51.9019 14.3174H51.1968ZM51.9339 15.1373C53.2287 15.1373 54.1837 14.3046 54.1837 12.8699C54.1837 11.4351 53.2351 10.5961 51.9403 10.5961H50.3123V15.1373H51.9339ZM56.3991 12.8635C56.3991 11.8387 57.117 11.3519 57.8157 11.3519C58.5208 11.3519 59.2386 11.8387 59.2386 12.8635C59.2386 13.8883 58.5208 14.3751 57.8157 14.3751C57.117 14.3751 56.3991 13.8883 56.3991 12.8635ZM55.4826 12.8699C55.4826 14.3302 56.585 15.2333 57.8157 15.2333C59.0528 15.2333 60.1552 14.3302 60.1552 12.8699C60.1552 11.4031 59.0528 10.5 57.8157 10.5C56.585 10.5 55.4826 11.4031 55.4826 12.8699ZM65.8355 13.7345L64.8228 10.5961H63.9062L62.8999 13.7217L62.0666 10.5961H61.1308L62.3935 15.1373H63.3165L64.3549 11.9027L65.3932 15.1373H66.3034L67.5597 10.5961H66.6559L65.8355 13.7345ZM72.8371 15.1373V10.5961H71.9525V13.6L70.0617 10.5961H68.9592V15.1373H69.8437V11.9155L71.9077 15.1373H72.8371ZM77.5842 15.1373V14.2918H75.5587V10.5961H74.6742V15.1373H77.5842ZM79.5591 12.8635C79.5591 11.8387 80.277 11.3519 80.9757 11.3519C81.6808 11.3519 82.3986 11.8387 82.3986 12.8635C82.3986 13.8883 81.6808 14.3751 80.9757 14.3751C80.277 14.3751 79.5591 13.8883 79.5591 12.8635ZM78.6426 12.8699C78.6426 14.3302 79.745 15.2333 80.9757 15.2333C82.2128 15.2333 83.3152 14.3302 83.3152 12.8699C83.3152 11.4031 82.2128 10.5 80.9757 10.5C79.745 10.5 78.6426 11.4031 78.6426 12.8699ZM87.7473 15.1373H88.7087L86.9781 10.5961H85.9526L84.2091 15.1373H85.145L85.5231 14.0996H87.3691L87.7473 15.1373ZM86.4461 11.576L87.0743 13.2926H85.818L86.4461 11.576ZM90.9754 14.3174V11.4159H91.6869C92.4304 11.4159 93.0457 11.8835 93.0457 12.8699C93.0457 13.8562 92.424 14.3174 91.6804 14.3174H90.9754ZM91.7125 15.1373C93.0073 15.1373 93.9623 14.3046 93.9623 12.8699C93.9623 11.4351 93.0137 10.5961 91.7189 10.5961H90.0908V15.1373H91.7125ZM98.5629 12.8635C98.5629 11.8387 99.2807 11.3519 99.9794 11.3519C100.684 11.3519 101.402 11.8387 101.402 12.8635C101.402 13.8883 100.684 14.3751 99.9794 14.3751C99.2807 14.3751 98.5629 13.8883 98.5629 12.8635ZM97.6463 12.8699C97.6463 14.3302 98.7487 15.2333 99.9794 15.2333C101.216 15.2333 102.319 14.3302 102.319 12.8699C102.319 11.4031 101.216 10.5 99.9794 10.5C98.7487 10.5 97.6463 11.4031 97.6463 12.8699ZM107.765 15.1373V10.5961H106.88V13.6L104.989 10.5961H103.887V15.1373H104.771V11.9155L106.835 15.1373H107.765ZM115.333 11.4351V10.5961H111.571V11.4351H113.006V15.1373H113.897V11.4351H115.333ZM120.513 15.1373V10.5961H119.622V12.4215H117.641V10.5961H116.757V15.1373H117.641V13.2542H119.622V15.1373H120.513ZM125.198 15.1373V14.3046H123.237V13.2542H125.012V12.4663H123.237V11.4287H125.198V10.5961H122.352V15.1373H125.198Z" fill="white"/>
<path d="M39.2764 28.7616C38.7561 29.913 38.5077 30.427 37.8377 31.4442C36.9043 32.8649 35.5873 34.6343 33.9553 34.6492C32.5057 34.6628 32.1331 33.7065 30.1651 33.718C28.1972 33.7296 27.787 34.6663 26.3373 34.6528C24.7053 34.6383 23.4585 33.0405 22.524 31.6189C19.9121 27.6457 19.6392 22.9836 21.2501 20.5051C22.3949 18.7427 24.2016 17.7129 25.8997 17.7129C27.6288 17.7129 28.7159 18.6602 30.1461 18.6602C31.5332 18.6602 32.378 17.7114 34.3775 17.7114C35.8888 17.7114 37.4902 18.5336 38.6314 19.9542C34.8922 22.0013 35.5002 27.335 39.2764 28.7616Z" fill="white"/>
<path d="M33.0715 15.2253C33.798 14.2936 34.3489 12.9791 34.1486 11.6345C32.9618 11.7156 31.5747 12.4702 30.7645 13.4535C30.0289 14.3457 29.4214 15.6692 29.6578 16.9557C30.9523 16.9963 32.2928 16.2231 33.0715 15.2253Z" fill="white"/>
</svg>
