<svg width="152" height="46" viewBox="0 0 152 46" fill="none" xmlns="http://www.w3.org/2000/svg">
<rect width="151.5" height="45.75" rx="22.875" fill="#18181B"/>
<path d="M56.307 33.3764H54.9773L54.8259 31.6951C54.5341 32.2219 54.0572 32.6758 53.3952 33.0569C52.7332 33.438 51.9365 33.6286 51.0052 33.6286C49.9841 33.6286 49.0416 33.3988 48.1776 32.9393C47.3136 32.4685 46.6011 31.7511 46.0401 30.7872C45.4902 29.8232 45.2153 28.6967 45.2153 27.4077C45.2153 26.1187 45.5071 24.9922 46.0905 24.0282C46.674 23.0643 47.4034 22.3525 48.2786 21.893C49.165 21.4334 50.1132 21.2036 51.123 21.2036C52.4022 21.2036 53.513 21.5343 54.4556 22.1956C55.4093 22.8457 56.0601 23.7144 56.408 24.8016L54.91 25.4405C54.6407 24.5775 54.1695 23.9105 53.4962 23.4398C52.8342 22.9578 52.0431 22.7168 51.123 22.7168C49.9673 22.7168 48.9743 23.1259 48.1439 23.9442C47.3136 24.7624 46.8984 25.9169 46.8984 27.4077C46.8984 28.9097 47.3024 30.0754 48.1103 30.9049C48.9294 31.7231 49.9112 32.1322 51.0557 32.1322C51.6841 32.1322 52.2395 32.0313 52.722 31.8296C53.2157 31.6278 53.5972 31.3644 53.8665 31.0394C54.147 30.7031 54.3546 30.3668 54.4892 30.0306C54.6351 29.6943 54.7193 29.358 54.7417 29.0218H50.6013V27.5422H56.307V33.3764ZM60.3405 31.4597C60.8342 31.9641 61.4345 32.2163 62.1414 32.2163C62.8483 32.2163 63.443 31.9641 63.9255 31.4597C64.4192 30.9441 64.6661 30.2323 64.6661 29.3244C64.6661 28.4277 64.4192 27.7271 63.9255 27.2228C63.443 26.7071 62.8483 26.4493 62.1414 26.4493C61.4345 26.4493 60.8342 26.7071 60.3405 27.2228C59.858 27.7271 59.6168 28.4277 59.6168 29.3244C59.6168 30.2323 59.858 30.9441 60.3405 31.4597ZM59.1623 26.2644C59.9478 25.4462 60.9408 25.037 62.1414 25.037C63.3421 25.037 64.3295 25.4462 65.1037 26.2644C65.8891 27.0714 66.2819 28.0914 66.2819 29.3244C66.2819 30.5686 65.8948 31.5998 65.1205 32.418C64.3463 33.2251 63.3533 33.6286 62.1414 33.6286C60.9296 33.6286 59.9366 33.2251 59.1623 32.418C58.3881 31.5998 58.001 30.5686 58.001 29.3244C58.001 28.0914 58.3881 27.0714 59.1623 26.2644ZM69.9724 31.4597C70.4661 31.9641 71.0664 32.2163 71.7733 32.2163C72.4802 32.2163 73.0749 31.9641 73.5574 31.4597C74.0511 30.9441 74.2979 30.2323 74.2979 29.3244C74.2979 28.4277 74.0511 27.7271 73.5574 27.2228C73.0749 26.7071 72.4802 26.4493 71.7733 26.4493C71.0664 26.4493 70.4661 26.7071 69.9724 27.2228C69.4899 27.7271 69.2486 28.4277 69.2486 29.3244C69.2486 30.2323 69.4899 30.9441 69.9724 31.4597ZM68.7942 26.2644C69.5796 25.4462 70.5727 25.037 71.7733 25.037C72.9739 25.037 73.9613 25.4462 74.7355 26.2644C75.521 27.0714 75.9137 28.0914 75.9137 29.3244C75.9137 30.5686 75.5266 31.5998 74.7524 32.418C73.9782 33.2251 72.9851 33.6286 71.7733 33.6286C70.5614 33.6286 69.5684 33.2251 68.7942 32.418C68.02 31.5998 67.6328 30.5686 67.6328 29.3244C67.6328 28.0914 68.02 27.0714 68.7942 26.2644ZM77.3489 33.8135L78.8805 33.4605C78.9366 34.0321 79.1666 34.5029 79.5705 34.8728C79.9745 35.2539 80.4794 35.4444 81.0853 35.4444C82.7348 35.4444 83.5595 34.5701 83.5595 32.8216V31.6615C83.3575 32.0538 83.0377 32.3732 82.6001 32.6198C82.1737 32.8664 81.6688 32.9897 81.0853 32.9897C80.0082 32.9897 79.1161 32.6254 78.4092 31.8968C77.7135 31.1571 77.3657 30.2155 77.3657 29.0722C77.3657 27.9625 77.7135 27.0322 78.4092 26.2812C79.1049 25.519 79.9969 25.1379 81.0853 25.1379C82.3196 25.1379 83.15 25.5638 83.5763 26.4157V25.2892H85.1418V32.7711C85.1418 33.3091 85.0689 33.8079 84.923 34.2675C84.7883 34.7383 84.5695 35.1698 84.2664 35.5621C83.9635 35.9544 83.5371 36.2627 82.9873 36.4868C82.4487 36.711 81.8147 36.8231 81.0853 36.8231C80.0867 36.8231 79.2395 36.5373 78.5439 35.9656C77.8482 35.4052 77.4498 34.6878 77.3489 33.8135ZM81.321 31.6615C82.0054 31.6615 82.5609 31.4261 82.9873 30.9553C83.4136 30.4733 83.6268 29.8456 83.6268 29.0722C83.6268 28.2988 83.4136 27.6767 82.9873 27.2059C82.5609 26.724 82.0054 26.483 81.321 26.483C80.6253 26.483 80.0587 26.7184 79.621 27.1891C79.1947 27.6599 78.9815 28.2876 78.9815 29.0722C78.9815 29.868 79.189 30.5013 79.6042 30.9721C80.0306 31.4317 80.6029 31.6615 81.321 31.6615ZM89.2502 33.3764H87.668V21.2036H89.2502V33.3764ZM92.9682 28.5006H97.3948C97.3723 27.8953 97.1704 27.4021 96.7889 27.021C96.4074 26.6287 95.8688 26.4325 95.1731 26.4325C94.5447 26.4325 94.0286 26.6399 93.6246 27.0546C93.2207 27.4581 93.0019 27.9401 92.9682 28.5006ZM97.6304 30.6022L98.9937 31.073C98.7581 31.824 98.3205 32.4405 97.6809 32.9224C97.0413 33.3932 96.2671 33.6286 95.3582 33.6286C94.2249 33.6286 93.26 33.2419 92.4633 32.4685C91.6778 31.6839 91.2851 30.6302 91.2851 29.3076C91.2851 28.0746 91.6666 27.0546 92.4296 26.2476C93.1926 25.4406 94.1015 25.037 95.1563 25.037C96.3793 25.037 97.3331 25.4237 98.0175 26.1971C98.702 26.9593 99.0442 27.985 99.0442 29.274C99.0442 29.4757 99.033 29.6439 99.0106 29.7784H92.9177C92.9289 30.4957 93.1646 31.0842 93.6246 31.5438C94.0959 32.0033 94.6738 32.2331 95.3582 32.2331C96.514 32.2331 97.2714 31.6895 97.6304 30.6022ZM107.089 27.021H109.479C110.186 27.021 110.747 26.8417 111.163 26.483C111.578 26.1131 111.785 25.6199 111.785 25.0034C111.785 24.3757 111.578 23.8769 111.163 23.507C110.747 23.1259 110.186 22.9354 109.479 22.9354H107.089V27.021ZM109.782 28.5006H107.089V33.3764H105.44V21.4558H109.782C110.871 21.4558 111.757 21.7921 112.442 22.4646C113.126 23.1371 113.468 23.9778 113.468 24.9866C113.468 26.0066 113.126 26.8473 112.442 27.5086C111.757 28.1699 110.871 28.5006 109.782 28.5006ZM116.732 33.3764H115.15V21.2036H116.732V33.3764ZM118.919 31.2075C118.919 30.5125 119.143 29.9577 119.592 29.543C120.041 29.117 120.635 28.8536 121.376 28.7528L123.564 28.4333C123.979 28.3773 124.187 28.1755 124.187 27.828C124.187 27.4021 124.041 27.0546 123.749 26.7856C123.457 26.5166 123.02 26.3821 122.436 26.3821C121.898 26.3821 121.471 26.5334 121.157 26.836C120.843 27.1275 120.658 27.5198 120.602 28.013L119.087 27.6599C119.165 26.8865 119.519 26.2588 120.147 25.7768C120.776 25.2836 121.527 25.037 122.403 25.037C123.547 25.037 124.394 25.3173 124.944 25.8777C125.494 26.4269 125.769 27.1331 125.769 27.9962V32.0482C125.769 32.5301 125.802 32.9729 125.87 33.3764H124.321C124.265 33.0401 124.237 32.6758 124.237 32.2835C124.013 32.6422 123.682 32.9561 123.244 33.2251C122.818 33.4941 122.279 33.6286 121.628 33.6286C120.832 33.6286 120.181 33.3932 119.676 32.9224C119.171 32.4405 118.919 31.8688 118.919 31.2075ZM121.847 32.3004C122.554 32.3004 123.121 32.1098 123.547 31.7287C123.973 31.3476 124.187 30.7423 124.187 29.9129V29.543L121.712 29.9129C121.353 29.9689 121.067 30.0978 120.854 30.2996C120.641 30.5013 120.534 30.776 120.534 31.1234C120.534 31.4373 120.652 31.7119 120.888 31.9473C121.135 32.1827 121.454 32.3004 121.847 32.3004ZM130.09 36.7559H128.356L130.376 32.4853L126.892 25.2892H128.709L131.234 30.8712L133.658 25.2892H135.358L130.09 36.7559Z" fill="white"/>
<path opacity="0.6" d="M49.8955 14.9615V12.598H47.6257V13.3666H49.0619C49.0106 13.6869 48.6836 14.2505 47.8437 14.2505C47.0807 14.2505 46.4074 13.7189 46.4074 12.6941C46.4074 11.618 47.1512 11.1505 47.8373 11.1505C48.5746 11.1505 48.9529 11.618 49.0683 12.0216L49.9147 11.7205C49.6903 11.0224 49.0299 10.3242 47.8373 10.3242C46.6062 10.3242 45.5098 11.2273 45.5098 12.6941C45.5098 14.1608 46.5549 15.0575 47.7796 15.0575C48.4656 15.0575 48.9144 14.7501 49.1196 14.4427L49.1773 14.9615H49.8955ZM54.8374 14.9615V14.1288H52.8754V13.0784H54.6514V12.2906H52.8754V11.2529H54.8374V10.4203H51.9905V14.9615H54.8374ZM60.3467 11.2594V10.4203H56.583V11.2594H58.0192V14.9615H58.9105V11.2594H60.3467ZM65.8559 14.9615V10.4203H64.9582V14.9615H65.8559ZM71.4422 11.2594V10.4203H67.6785V11.2594H69.1148V14.9615H70.006V11.2594H71.4422ZM76.7012 12.6877C76.7012 11.6629 77.4194 11.1761 78.1182 11.1761C78.8235 11.1761 79.5417 11.6629 79.5417 12.6877C79.5417 13.7125 78.8235 14.1993 78.1182 14.1993C77.4194 14.1993 76.7012 13.7125 76.7012 12.6877ZM75.7843 12.6941C75.7843 14.1544 76.8872 15.0575 78.1182 15.0575C79.3557 15.0575 80.4586 14.1544 80.4586 12.6941C80.4586 11.2273 79.3557 10.3242 78.1182 10.3242C76.8872 10.3242 75.7843 11.2273 75.7843 12.6941ZM86.3074 14.9615V10.4203H85.4226V13.4243L83.5308 10.4203H82.428V14.9615H83.3128V11.7397L85.3777 14.9615H86.3074Z" fill="white"/>
<path d="M19.6589 33.0479C19.1842 33.3544 18.614 33.4471 18.0791 33.3209L27.4781 23.9319L30.5243 26.9748L19.6589 33.0479Z" fill="white"/>
<path d="M16.913 32.5578C16.6509 32.2097 16.5 31.7823 16.5 31.3301V14.6055C16.5 14.1533 16.6509 13.7258 16.913 13.3777L26.5133 22.9677L16.913 32.5578Z" fill="white"/>
<path d="M34.5002 24.753L31.7624 26.2832L28.4436 22.9678L31.7627 19.6523L34.5007 21.1827C35.1566 21.5498 35.5482 22.2171 35.5482 22.9678C35.5482 23.7186 35.1566 24.3858 34.5002 24.753Z" fill="white"/>
<path d="M27.4782 22.0037L18.0798 12.6153C18.2339 12.579 18.3907 12.5596 18.5475 12.5596C18.9351 12.5596 19.3212 12.6697 19.6591 12.8877L30.5246 18.9607L27.4782 22.0037Z" fill="white"/>
</svg>
