<svg width="45" height="46" viewBox="0 0 45 46" fill="none" xmlns="http://www.w3.org/2000/svg">
<circle opacity="0.2" cx="22.5" cy="23.125" r="22.5" fill="#F23936"/>
<path d="M15.1876 26.1367C14.7022 26.1367 14.3087 26.5302 14.3087 27.0156C14.3087 27.501 14.7022 27.8945 15.1876 27.8945H22.2188C22.7042 27.8945 23.0977 27.501 23.0977 27.0156C23.0977 26.5302 22.7042 26.1367 22.2188 26.1367H15.1876Z" fill="#F23936"/>
<path fill-rule="evenodd" clip-rule="evenodd" d="M14.0156 14.125C12.074 14.125 10.5 15.699 10.5 17.6406V29.3594C10.5 31.3011 12.074 32.875 14.0156 32.875H30.4219C32.3636 32.875 33.9375 31.3011 33.9375 29.3594V17.6406C33.9375 15.699 32.3636 14.125 30.4219 14.125H14.0156ZM30.4219 15.8828H14.0156C13.0448 15.8828 12.2578 16.6698 12.2578 17.6406V19.1055H32.1797V17.6406C32.1797 16.6698 31.3927 15.8828 30.4219 15.8828ZM12.2578 29.3594V20.8633H32.1797V29.3594C32.1797 30.3302 31.3927 31.1172 30.4219 31.1172H14.0156C13.0448 31.1172 12.2578 30.3302 12.2578 29.3594Z" fill="#F23936"/>
</svg>
