<svg width="45" height="46" viewBox="0 0 45 46" fill="none" xmlns="http://www.w3.org/2000/svg">
<circle opacity="0.2" cx="22.5" cy="22.625" r="22.5" fill="#FABB18"/>
<path d="M34.5001 25.64V25.8577C34.5001 27.4554 33.4878 28.8202 32.0853 29.3601C31.83 32.3075 29.3623 34.625 26.3552 34.625H22.5002C22.0801 34.625 21.75 34.2876 21.75 33.8748C21.75 33.4547 22.0801 33.1246 22.5002 33.1246H26.3552C28.4478 33.1246 30.18 31.6096 30.5325 29.6222H28.8223C28.4101 29.6222 28.0721 29.2847 28.0721 28.872L28.0726 22.625C28.0726 22.2049 28.41 21.8748 28.8228 21.8748H30.6078V20.1197C30.6072 15.71 26.9698 12.1255 22.5001 12.1255C18.0224 12.1255 14.385 15.7107 14.385 20.1202V21.8749H16.1699C16.5822 21.8749 16.9201 22.205 16.9201 22.6251V28.8725C16.9201 29.2847 16.5827 29.6227 16.1699 29.6227H14.2651C12.1877 29.6227 10.5001 27.935 10.5001 25.8576V25.64C10.5001 24.0502 11.4898 22.6926 12.8851 22.1448V20.1197C12.8851 14.8851 17.1974 10.625 22.5001 10.625C27.7948 10.625 32.1071 14.8851 32.1071 20.1197V22.1448C33.5023 22.6925 34.4999 24.0502 34.4999 25.64L34.5001 25.64Z" fill="#FABB18" stroke="#FABB18" stroke-width="0.375"/>
</svg>
