<svg width="50" height="50" viewBox="0 0 50 50" fill="none" xmlns="http://www.w3.org/2000/svg">
<g opacity="0.4">
<circle opacity="0.2" cx="25" cy="25" r="25" fill="#F23936"/>
<path d="M24.5383 14.7139C24.7091 14.3033 25.2909 14.3033 25.4617 14.7139L27.4279 19.4413C27.7879 20.3069 28.6019 20.8983 29.5364 20.9732L34.64 21.3824C35.0833 21.4179 35.2631 21.9712 34.9253 22.2605L31.0369 25.5913C30.3249 26.2012 30.014 27.1581 30.2315 28.07L31.4195 33.0503C31.5227 33.4829 31.0521 33.8248 30.6725 33.593L26.3031 30.9242L25.7819 31.7776L26.3031 30.9242C25.5031 30.4355 24.4969 30.4355 23.6969 30.9242L24.2181 31.7776L23.6969 30.9242L19.3275 33.593C18.9479 33.8248 18.4773 33.4829 18.5805 33.0503L19.7685 28.07C19.986 27.1581 19.6751 26.2012 18.9631 25.5913L15.0747 22.2605C14.7369 21.9712 14.9167 21.4179 15.36 21.3824L20.4636 20.9732C21.3981 20.8983 22.2121 20.3069 22.5721 19.4413L24.5383 14.7139Z" stroke="#F23936" stroke-width="2"/>
</g>
</svg>
