<svg width="217" height="12" viewBox="0 0 217 12" fill="none" xmlns="http://www.w3.org/2000/svg">
<path d="M2.12891 4.63636C2.12891 4.17045 2.24254 3.74574 2.46982 3.36222C2.69709 2.97869 3.00249 2.6733 3.38601 2.44602C3.76953 2.21875 4.19425 2.10511 4.66016 2.10511C5.06357 2.10511 5.43572 2.19176 5.77663 2.36506C6.12038 2.53835 6.40447 2.77557 6.62891 3.0767C6.85334 3.375 6.99254 3.71307 7.04652 4.09091H6.01527C5.95845 3.7983 5.80078 3.55966 5.54226 3.375C5.28374 3.1875 4.9897 3.09375 4.66016 3.09375C4.37607 3.09375 4.11754 3.16335 3.88459 3.30256C3.65163 3.44176 3.46555 3.62784 3.32635 3.8608C3.18714 4.09375 3.11754 4.35227 3.11754 4.63636C3.11754 4.92045 3.18714 5.17898 3.32635 5.41193C3.46555 5.64489 3.65163 5.83097 3.88459 5.97017C4.11754 6.10937 4.37607 6.17898 4.66016 6.17898C4.9897 6.17898 5.26811 6.08665 5.49538 5.90199C5.7255 5.71449 5.87038 5.47443 5.93004 5.18182H6.96129C6.90732 5.55966 6.77521 5.89915 6.56499 6.20028C6.35476 6.49858 6.08487 6.73437 5.75533 6.90767C5.42862 7.08097 5.06357 7.16761 4.66016 7.16761C4.19425 7.16761 3.76953 7.05398 3.38601 6.8267C3.00249 6.59943 2.69709 6.29403 2.46982 5.91051C2.24254 5.52699 2.12891 5.10227 2.12891 4.63636ZM4.61754 9.13636C3.99822 9.13636 3.41584 9.01989 2.87038 8.78693C2.32777 8.55398 1.84908 8.23153 1.4343 7.8196C1.02237 7.40483 0.698509 6.92614 0.462713 6.38352C0.229759 5.84091 0.114702 5.25852 0.117543 4.63636C0.120384 4.0142 0.238281 3.43182 0.471236 2.8892C0.707031 2.34659 1.03089 1.86932 1.44283 1.45739C1.85476 1.04261 2.33203 0.71875 2.87465 0.485795C3.41726 0.252841 3.99822 0.136364 4.61754 0.136364C5.2397 0.136364 5.82209 0.252841 6.3647 0.485795C6.91016 0.71875 7.38743 1.04261 7.79652 1.45739C8.20845 1.86932 8.53089 2.34659 8.76385 2.8892C8.9968 3.43182 9.1147 4.0142 9.11754 4.63636C9.12038 5.25852 9.00533 5.84091 8.77237 6.38352C8.53942 6.92614 8.21697 7.40483 7.80504 7.8196C7.39311 8.23153 6.91442 8.55398 6.36896 8.78693C5.82351 9.01989 5.2397 9.13636 4.61754 9.13636ZM4.61754 8.14773C5.10334 8.14773 5.5593 8.05682 5.98544 7.875C6.41158 7.69318 6.78516 7.44176 7.10618 7.12074C7.4272 6.79972 7.67862 6.42756 7.86044 6.00426C8.04226 5.57812 8.13175 5.12358 8.12891 4.64062C8.12607 4.15483 8.03374 3.69886 7.85192 3.27273C7.6701 2.84659 7.41868 2.47301 7.09766 2.15199C6.77663 1.83097 6.40447 1.57955 5.98118 1.39773C5.55788 1.21591 5.10334 1.125 4.61754 1.125C4.13459 1.125 3.68146 1.21591 3.25817 1.39773C2.83487 1.57955 2.46271 1.83239 2.14169 2.15625C1.82067 2.47727 1.56783 2.85085 1.38317 3.27699C1.20135 3.70028 1.10902 4.15483 1.10618 4.64062C1.10334 5.12074 1.19283 5.57386 1.37464 6C1.55646 6.4233 1.80788 6.79545 2.12891 7.11648C2.45277 7.4375 2.82635 7.69034 3.24965 7.875C3.67578 8.05682 4.13175 8.14773 4.61754 8.14773ZM21.5639 3H20.5071C20.4446 2.69602 20.3352 2.42898 20.179 2.19886C20.0256 1.96875 19.8381 1.77557 19.6165 1.61932C19.3977 1.46023 19.1548 1.34091 18.8878 1.26136C18.6207 1.18182 18.3423 1.14205 18.0526 1.14205C17.5241 1.14205 17.0455 1.27557 16.6165 1.54261C16.1903 1.80966 15.8509 2.20312 15.598 2.72301C15.348 3.2429 15.223 3.88068 15.223 4.63636C15.223 5.39205 15.348 6.02983 15.598 6.54972C15.8509 7.0696 16.1903 7.46307 16.6165 7.73011C17.0455 7.99716 17.5241 8.13068 18.0526 8.13068C18.3423 8.13068 18.6207 8.09091 18.8878 8.01136C19.1548 7.93182 19.3977 7.81392 19.6165 7.65767C19.8381 7.49858 20.0256 7.30398 20.179 7.07386C20.3352 6.84091 20.4446 6.57386 20.5071 6.27273H21.5639C21.4844 6.71875 21.3395 7.1179 21.1293 7.47017C20.919 7.82244 20.6577 8.12216 20.3452 8.36932C20.0327 8.61364 19.6818 8.79972 19.2926 8.92756C18.9063 9.0554 18.4929 9.11932 18.0526 9.11932C17.3082 9.11932 16.6463 8.9375 16.0668 8.57386C15.4872 8.21023 15.0313 7.69318 14.6989 7.02273C14.3665 6.35227 14.2003 5.55682 14.2003 4.63636C14.2003 3.71591 14.3665 2.92045 14.6989 2.25C15.0313 1.57955 15.4872 1.0625 16.0668 0.698864C16.6463 0.335227 17.3082 0.153409 18.0526 0.153409C18.4929 0.153409 18.9063 0.217329 19.2926 0.34517C19.6818 0.473011 20.0327 0.660511 20.3452 0.90767C20.6577 1.15199 20.919 1.45028 21.1293 1.80256C21.3395 2.15199 21.4844 2.55114 21.5639 3ZM25.7944 9.13636C25.2035 9.13636 24.685 8.99574 24.239 8.71449C23.7958 8.43324 23.4492 8.03977 23.1992 7.53409C22.9521 7.02841 22.8285 6.4375 22.8285 5.76136C22.8285 5.07955 22.9521 4.48437 23.1992 3.97585C23.4492 3.46733 23.7958 3.07244 24.239 2.79119C24.685 2.50994 25.2035 2.36932 25.7944 2.36932C26.3853 2.36932 26.9023 2.50994 27.3455 2.79119C27.7915 3.07244 28.1381 3.46733 28.3853 3.97585C28.6353 4.48437 28.7603 5.07955 28.7603 5.76136C28.7603 6.4375 28.6353 7.02841 28.3853 7.53409C28.1381 8.03977 27.7915 8.43324 27.3455 8.71449C26.9023 8.99574 26.3853 9.13636 25.7944 9.13636ZM25.7944 8.23295C26.2433 8.23295 26.6126 8.1179 26.9023 7.88778C27.1921 7.65767 27.4066 7.35511 27.5458 6.98011C27.685 6.60511 27.7546 6.19886 27.7546 5.76136C27.7546 5.32386 27.685 4.91619 27.5458 4.53835C27.4066 4.16051 27.1921 3.85511 26.9023 3.62216C26.6126 3.3892 26.2433 3.27273 25.7944 3.27273C25.3455 3.27273 24.9762 3.3892 24.6864 3.62216C24.3967 3.85511 24.1822 4.16051 24.043 4.53835C23.9038 4.91619 23.8342 5.32386 23.8342 5.76136C23.8342 6.19886 23.9038 6.60511 24.043 6.98011C24.1822 7.35511 24.3967 7.65767 24.6864 7.88778C24.9762 8.1179 25.3455 8.23295 25.7944 8.23295ZM30.2955 11.4545V2.45455H31.267V3.49432H31.3864C31.4602 3.38068 31.5625 3.2358 31.6932 3.05966C31.8267 2.88068 32.017 2.72159 32.2642 2.58239C32.5142 2.44034 32.8523 2.36932 33.2784 2.36932C33.8295 2.36932 34.3153 2.5071 34.7358 2.78267C35.1563 3.05824 35.4844 3.44886 35.7202 3.95455C35.956 4.46023 36.0739 5.05682 36.0739 5.74432C36.0739 6.4375 35.956 7.03835 35.7202 7.54688C35.4844 8.05256 35.1577 8.4446 34.7401 8.72301C34.3224 8.99858 33.8409 9.13636 33.2955 9.13636C32.875 9.13636 32.5384 9.06676 32.2855 8.92756C32.0327 8.78551 31.8381 8.625 31.7017 8.44602C31.5653 8.2642 31.4602 8.11364 31.3864 7.99432H31.3011V11.4545H30.2955ZM31.2841 5.72727C31.2841 6.22159 31.3565 6.65767 31.5014 7.03551C31.6463 7.41051 31.858 7.70455 32.1364 7.91761C32.4148 8.12784 32.7557 8.23295 33.1591 8.23295C33.5795 8.23295 33.9304 8.12216 34.2116 7.90057C34.4957 7.67614 34.7088 7.375 34.8509 6.99716C34.9957 6.61648 35.0682 6.19318 35.0682 5.72727C35.0682 5.26705 34.9972 4.85227 34.8551 4.48295C34.7159 4.1108 34.5043 3.81676 34.2202 3.60085C33.9389 3.3821 33.5852 3.27273 33.1591 3.27273C32.75 3.27273 32.4063 3.37642 32.1278 3.58381C31.8494 3.78835 31.6392 4.07528 31.4972 4.4446C31.3551 4.81108 31.2841 5.23864 31.2841 5.72727ZM38.0213 11.4545C37.8509 11.4545 37.6989 11.4403 37.5653 11.4119C37.4318 11.3864 37.3395 11.3608 37.2884 11.3352L37.544 10.4489C37.7884 10.5114 38.0043 10.5341 38.1918 10.517C38.3793 10.5 38.5455 10.4162 38.6903 10.2656C38.8381 10.1179 38.973 9.87784 39.0952 9.54545L39.2827 9.03409L36.8622 2.45455H37.9531L39.7599 7.67045H39.8281L41.6349 2.45455H42.7259L39.9474 9.95455C39.8224 10.2926 39.6676 10.5724 39.483 10.794C39.2983 11.0185 39.0838 11.1847 38.8395 11.2926C38.598 11.4006 38.3253 11.4545 38.0213 11.4545ZM44.0533 9V2.45455H45.0249V3.44318H45.093C45.2124 3.11932 45.4283 2.85653 45.7408 2.65483C46.0533 2.45312 46.4055 2.35227 46.7976 2.35227C46.8714 2.35227 46.9638 2.35369 47.0746 2.35653C47.1854 2.35937 47.2692 2.36364 47.326 2.36932V3.39205C47.2919 3.38352 47.2138 3.37074 47.0916 3.35369C46.9723 3.33381 46.8459 3.32386 46.7124 3.32386C46.3942 3.32386 46.1101 3.39062 45.8601 3.52415C45.6129 3.65483 45.4169 3.83665 45.272 4.0696C45.13 4.29972 45.0589 4.5625 45.0589 4.85795V9H44.0533ZM48.5181 9V2.45455H49.5238V9H48.5181ZM49.0295 1.36364C48.8335 1.36364 48.6644 1.29688 48.5224 1.16335C48.3832 1.02983 48.3136 0.869318 48.3136 0.681818C48.3136 0.494318 48.3832 0.333807 48.5224 0.200284C48.6644 0.0667613 48.8335 0 49.0295 0C49.2255 0 49.3931 0.0667613 49.5323 0.200284C49.6744 0.333807 49.7454 0.494318 49.7454 0.681818C49.7454 0.869318 49.6744 1.02983 49.5323 1.16335C49.3931 1.29688 49.2255 1.36364 49.0295 1.36364ZM54.0078 11.5909C53.522 11.5909 53.1044 11.5284 52.755 11.4034C52.4055 11.2812 52.1143 11.1193 51.8814 10.9176C51.6513 10.7188 51.468 10.5057 51.3317 10.2784L52.1328 9.71591C52.2237 9.83523 52.3388 9.97159 52.478 10.125C52.6172 10.2812 52.8075 10.4162 53.049 10.5298C53.2933 10.6463 53.6129 10.7045 54.0078 10.7045C54.5362 10.7045 54.9723 10.5767 55.3161 10.321C55.6598 10.0653 55.8317 9.66477 55.8317 9.11932V7.78977H55.7464C55.6726 7.90909 55.5675 8.05682 55.4311 8.23295C55.2976 8.40625 55.1044 8.56108 54.8516 8.69744C54.6016 8.83097 54.2635 8.89773 53.8374 8.89773C53.3089 8.89773 52.8345 8.77273 52.4141 8.52273C51.9964 8.27273 51.6655 7.90909 51.4212 7.43182C51.1797 6.95455 51.0589 6.375 51.0589 5.69318C51.0589 5.02273 51.1768 4.43892 51.4126 3.94176C51.6484 3.44176 51.9766 3.0554 52.397 2.78267C52.8175 2.5071 53.3033 2.36932 53.8544 2.36932C54.2805 2.36932 54.6186 2.44034 54.8686 2.58239C55.1214 2.72159 55.3146 2.88068 55.4482 3.05966C55.5845 3.2358 55.6896 3.38068 55.7635 3.49432H55.8658V2.45455H56.8374V9.1875C56.8374 9.75 56.7095 10.2074 56.4538 10.5597C56.201 10.9148 55.8601 11.1747 55.4311 11.3395C55.005 11.5071 54.5305 11.5909 54.0078 11.5909ZM53.9737 7.99432C54.3771 7.99432 54.718 7.90199 54.9964 7.71733C55.2749 7.53267 55.4865 7.26705 55.6314 6.92045C55.7763 6.57386 55.8487 6.15909 55.8487 5.67614C55.8487 5.20455 55.7777 4.78835 55.6357 4.42756C55.4936 4.06676 55.2834 3.78409 55.005 3.57955C54.7266 3.375 54.3828 3.27273 53.9737 3.27273C53.5476 3.27273 53.1925 3.38068 52.9084 3.59659C52.6271 3.8125 52.4155 4.10227 52.2734 4.46591C52.1342 4.82955 52.0646 5.23295 52.0646 5.67614C52.0646 6.13068 52.1357 6.53267 52.2777 6.8821C52.4226 7.22869 52.6357 7.50142 52.9169 7.70028C53.201 7.89631 53.5533 7.99432 53.9737 7.99432ZM59.6839 5.0625V9H58.6783V0.272727H59.6839V3.47727H59.7692C59.9226 3.1392 60.1527 2.87074 60.4595 2.67188C60.7692 2.47017 61.1811 2.36932 61.6953 2.36932C62.1413 2.36932 62.532 2.45881 62.8672 2.63778C63.2024 2.81392 63.4624 3.08523 63.647 3.4517C63.8345 3.81534 63.9283 4.27841 63.9283 4.84091V9H62.9226V4.90909C62.9226 4.3892 62.7876 3.98722 62.5178 3.70312C62.2507 3.41619 61.88 3.27273 61.4055 3.27273C61.076 3.27273 60.7805 3.34233 60.5192 3.48153C60.2607 3.62074 60.0561 3.82386 59.9055 4.09091C59.7578 4.35795 59.6839 4.68182 59.6839 5.0625ZM68.6147 2.45455V3.30682H65.2227V2.45455H68.6147ZM66.2113 0.886364H67.217V7.125C67.217 7.40909 67.2582 7.62216 67.3406 7.7642C67.4258 7.90341 67.5337 7.99716 67.6644 8.04545C67.7979 8.09091 67.9386 8.11364 68.0863 8.11364C68.1971 8.11364 68.288 8.10795 68.359 8.09659C68.43 8.08239 68.4869 8.07102 68.5295 8.0625L68.734 8.96591C68.6658 8.99148 68.5707 9.01705 68.4485 9.04261C68.3263 9.07102 68.1715 9.08523 67.984 9.08523C67.6999 9.08523 67.4215 9.02415 67.1488 8.90199C66.8789 8.77983 66.6545 8.59375 66.4755 8.34375C66.2994 8.09375 66.2113 7.77841 66.2113 7.39773V0.886364ZM73.4854 9V8.23295L76.3661 5.07955C76.7042 4.71023 76.9826 4.3892 77.2013 4.11648C77.4201 3.84091 77.582 3.58239 77.6871 3.34091C77.7951 3.09659 77.8491 2.84091 77.8491 2.57386C77.8491 2.26705 77.7752 2.00142 77.6275 1.77699C77.4826 1.55256 77.2837 1.37926 77.0309 1.2571C76.7781 1.13494 76.494 1.07386 76.1786 1.07386C75.8434 1.07386 75.5508 1.14347 75.3008 1.28267C75.0536 1.41903 74.8619 1.6108 74.7255 1.85795C74.592 2.10511 74.5252 2.39489 74.5252 2.72727H73.5195C73.5195 2.21591 73.6374 1.76705 73.8732 1.38068C74.109 0.994318 74.43 0.693181 74.8363 0.477272C75.2454 0.261363 75.7042 0.153409 76.2127 0.153409C76.7241 0.153409 77.1772 0.261363 77.5721 0.477272C77.967 0.693181 78.2766 0.984375 78.5011 1.35085C78.7255 1.71733 78.8377 2.125 78.8377 2.57386C78.8377 2.89489 78.7795 3.20881 78.663 3.51562C78.5494 3.8196 78.3505 4.15909 78.0664 4.53409C77.7852 4.90625 77.3945 5.3608 76.8945 5.89773L74.9343 7.99432V8.0625H78.9911V9H73.4854ZM83.5977 9.11932C82.9556 9.11932 82.4087 8.9446 81.957 8.59517C81.5053 8.2429 81.1602 7.73295 80.9215 7.06534C80.6829 6.39489 80.5636 5.58523 80.5636 4.63636C80.5636 3.69318 80.6829 2.88778 80.9215 2.22017C81.163 1.54972 81.5096 1.03835 81.9613 0.686079C82.4158 0.330966 82.9613 0.153409 83.5977 0.153409C84.234 0.153409 84.7781 0.330966 85.2298 0.686079C85.6843 1.03835 86.0309 1.54972 86.2695 2.22017C86.511 2.88778 86.6317 3.69318 86.6317 4.63636C86.6317 5.58523 86.5124 6.39489 86.2738 7.06534C86.0352 7.73295 85.69 8.2429 85.2383 8.59517C84.7866 8.9446 84.2397 9.11932 83.5977 9.11932ZM83.5977 8.18182C84.234 8.18182 84.7283 7.875 85.0806 7.26136C85.4329 6.64773 85.609 5.77273 85.609 4.63636C85.609 3.88068 85.5281 3.23722 85.3661 2.70597C85.207 2.17472 84.9769 1.76989 84.6758 1.49148C84.3775 1.21307 84.0181 1.07386 83.5977 1.07386C82.967 1.07386 82.4741 1.38494 82.119 2.0071C81.7638 2.62642 81.5863 3.50284 81.5863 4.63636C81.5863 5.39205 81.6658 6.03409 81.8249 6.5625C81.984 7.09091 82.2127 7.4929 82.511 7.76847C82.8121 8.04403 83.1744 8.18182 83.5977 8.18182ZM88.2511 9V8.23295L91.1317 5.07955C91.4698 4.71023 91.7482 4.3892 91.967 4.11648C92.1857 3.84091 92.3477 3.58239 92.4528 3.34091C92.5607 3.09659 92.6147 2.84091 92.6147 2.57386C92.6147 2.26705 92.5408 2.00142 92.3931 1.77699C92.2482 1.55256 92.0494 1.37926 91.7965 1.2571C91.5437 1.13494 91.2596 1.07386 90.9442 1.07386C90.609 1.07386 90.3164 1.14347 90.0664 1.28267C89.8192 1.41903 89.6275 1.6108 89.4911 1.85795C89.3576 2.10511 89.2908 2.39489 89.2908 2.72727H88.2852C88.2852 2.21591 88.4031 1.76705 88.6388 1.38068C88.8746 0.994318 89.1957 0.693181 89.6019 0.477272C90.011 0.261363 90.4698 0.153409 90.9783 0.153409C91.4897 0.153409 91.9428 0.261363 92.3377 0.477272C92.7326 0.693181 93.0423 0.984375 93.2667 1.35085C93.4911 1.71733 93.6033 2.125 93.6033 2.57386C93.6033 2.89489 93.5451 3.20881 93.4286 3.51562C93.315 3.8196 93.1161 4.15909 92.832 4.53409C92.5508 4.90625 92.1602 5.3608 91.6602 5.89773L89.6999 7.99432V8.0625H93.7567V9H88.2511ZM95.5167 9V8.23295L98.3974 5.07955C98.7354 4.71023 99.0138 4.3892 99.2326 4.11648C99.4513 3.84091 99.6133 3.58239 99.7184 3.34091C99.8263 3.09659 99.8803 2.84091 99.8803 2.57386C99.8803 2.26705 99.8065 2.00142 99.6587 1.77699C99.5138 1.55256 99.315 1.37926 99.0621 1.2571C98.8093 1.13494 98.5252 1.07386 98.2099 1.07386C97.8746 1.07386 97.582 1.14347 97.332 1.28267C97.0849 1.41903 96.8931 1.6108 96.7567 1.85795C96.6232 2.10511 96.5565 2.39489 96.5565 2.72727H95.5508C95.5508 2.21591 95.6687 1.76705 95.9045 1.38068C96.1403 0.994318 96.4613 0.693181 96.8675 0.477272C97.2766 0.261363 97.7354 0.153409 98.244 0.153409C98.7553 0.153409 99.2085 0.261363 99.6033 0.477272C99.9982 0.693181 100.308 0.984375 100.532 1.35085C100.757 1.71733 100.869 2.125 100.869 2.57386C100.869 2.89489 100.811 3.20881 100.694 3.51562C100.581 3.8196 100.382 4.15909 100.098 4.53409C99.8164 4.90625 99.4258 5.3608 98.9258 5.89773L96.9656 7.99432V8.0625H101.022V9H95.5167ZM104.299 7.80682L104.231 8.26705C104.183 8.59091 104.109 8.9375 104.01 9.30682C103.913 9.67614 103.812 10.0241 103.707 10.3509C103.602 10.6776 103.515 10.9375 103.447 11.1307H102.68C102.717 10.9489 102.765 10.7088 102.825 10.4105C102.885 10.1122 102.944 9.77841 103.004 9.40909C103.066 9.04261 103.118 8.66761 103.157 8.28409L103.208 7.80682H104.299ZM110.032 9H108.924L112.129 0.272727H113.219L116.424 9H115.316L112.708 1.65341H112.64L110.032 9ZM110.441 5.59091H114.907V6.52841H110.441V5.59091ZM118.653 0.272727V9H117.647V0.272727H118.653ZM121.5 0.272727V9H120.495V0.272727H121.5ZM126.854 9V0.272727H129.803C130.484 0.272727 131.044 0.389204 131.482 0.622159C131.919 0.852272 132.243 1.16903 132.453 1.57244C132.663 1.97585 132.768 2.43466 132.768 2.94886C132.768 3.46307 132.663 3.91903 132.453 4.31676C132.243 4.71449 131.92 5.02699 131.486 5.25426C131.051 5.47869 130.496 5.59091 129.82 5.59091H127.433V4.63636H129.786C130.251 4.63636 130.626 4.56818 130.911 4.43182C131.197 4.29545 131.405 4.10227 131.533 3.85227C131.663 3.59943 131.729 3.2983 131.729 2.94886C131.729 2.59943 131.663 2.29403 131.533 2.03267C131.402 1.77131 131.193 1.5696 130.906 1.42756C130.619 1.28267 130.24 1.21023 129.768 1.21023H127.911V9H126.854ZM130.962 5.07955L133.109 9H131.882L129.768 5.07955H130.962ZM134.393 9V2.45455H135.399V9H134.393ZM134.904 1.36364C134.708 1.36364 134.539 1.29688 134.397 1.16335C134.258 1.02983 134.189 0.869318 134.189 0.681818C134.189 0.494318 134.258 0.333807 134.397 0.200284C134.539 0.0667613 134.708 0 134.904 0C135.1 0 135.268 0.0667613 135.407 0.200284C135.549 0.333807 135.62 0.494318 135.62 0.681818C135.62 0.869318 135.549 1.02983 135.407 1.16335C135.268 1.29688 135.1 1.36364 134.904 1.36364ZM139.883 11.5909C139.397 11.5909 138.979 11.5284 138.63 11.4034C138.281 11.2812 137.989 11.1193 137.756 10.9176C137.526 10.7188 137.343 10.5057 137.207 10.2784L138.008 9.71591C138.099 9.83523 138.214 9.97159 138.353 10.125C138.492 10.2812 138.683 10.4162 138.924 10.5298C139.168 10.6463 139.488 10.7045 139.883 10.7045C140.411 10.7045 140.847 10.5767 141.191 10.321C141.535 10.0653 141.707 9.66477 141.707 9.11932V7.78977H141.621C141.548 7.90909 141.442 8.05682 141.306 8.23295C141.173 8.40625 140.979 8.56108 140.727 8.69744C140.477 8.83097 140.138 8.89773 139.712 8.89773C139.184 8.89773 138.71 8.77273 138.289 8.52273C137.871 8.27273 137.54 7.90909 137.296 7.43182C137.055 6.95455 136.934 6.375 136.934 5.69318C136.934 5.02273 137.052 4.43892 137.288 3.94176C137.523 3.44176 137.852 3.0554 138.272 2.78267C138.692 2.5071 139.178 2.36932 139.729 2.36932C140.156 2.36932 140.494 2.44034 140.744 2.58239C140.996 2.72159 141.19 2.88068 141.323 3.05966C141.46 3.2358 141.565 3.38068 141.638 3.49432H141.741V2.45455H142.712V9.1875C142.712 9.75 142.585 10.2074 142.329 10.5597C142.076 10.9148 141.735 11.1747 141.306 11.3395C140.88 11.5071 140.406 11.5909 139.883 11.5909ZM139.849 7.99432C140.252 7.99432 140.593 7.90199 140.871 7.71733C141.15 7.53267 141.362 7.26705 141.506 6.92045C141.651 6.57386 141.724 6.15909 141.724 5.67614C141.724 5.20455 141.653 4.78835 141.511 4.42756C141.369 4.06676 141.158 3.78409 140.88 3.57955C140.602 3.375 140.258 3.27273 139.849 3.27273C139.423 3.27273 139.067 3.38068 138.783 3.59659C138.502 3.8125 138.29 4.10227 138.148 4.46591C138.009 4.82955 137.94 5.23295 137.94 5.67614C137.94 6.13068 138.011 6.53267 138.153 6.8821C138.298 7.22869 138.511 7.50142 138.792 7.70028C139.076 7.89631 139.428 7.99432 139.849 7.99432ZM145.559 5.0625V9H144.553V0.272727H145.559V3.47727H145.644C145.798 3.1392 146.028 2.87074 146.335 2.67188C146.644 2.47017 147.056 2.36932 147.57 2.36932C148.016 2.36932 148.407 2.45881 148.742 2.63778C149.077 2.81392 149.337 3.08523 149.522 3.4517C149.71 3.81534 149.803 4.27841 149.803 4.84091V9H148.798V4.90909C148.798 4.3892 148.663 3.98722 148.393 3.70312C148.126 3.41619 147.755 3.27273 147.281 3.27273C146.951 3.27273 146.656 3.34233 146.394 3.48153C146.136 3.62074 145.931 3.82386 145.781 4.09091C145.633 4.35795 145.559 4.68182 145.559 5.0625ZM154.49 2.45455V3.30682H151.098V2.45455H154.49ZM152.086 0.886364H153.092V7.125C153.092 7.40909 153.133 7.62216 153.216 7.7642C153.301 7.90341 153.409 7.99716 153.539 8.04545C153.673 8.09091 153.814 8.11364 153.961 8.11364C154.072 8.11364 154.163 8.10795 154.234 8.09659C154.305 8.08239 154.362 8.07102 154.404 8.0625L154.609 8.96591C154.541 8.99148 154.446 9.01705 154.324 9.04261C154.201 9.07102 154.047 9.08523 153.859 9.08523C153.575 9.08523 153.297 9.02415 153.024 8.90199C152.754 8.77983 152.529 8.59375 152.35 8.34375C152.174 8.09375 152.086 7.77841 152.086 7.39773V0.886364ZM160.522 3.92045L159.618 4.17614C159.561 4.02557 159.478 3.87926 159.367 3.73722C159.259 3.59233 159.111 3.47301 158.924 3.37926C158.736 3.28551 158.496 3.23864 158.203 3.23864C157.803 3.23864 157.469 3.33097 157.202 3.51562C156.938 3.69744 156.806 3.92898 156.806 4.21023C156.806 4.46023 156.897 4.65767 157.078 4.80256C157.26 4.94744 157.544 5.06818 157.931 5.16477L158.902 5.40341C159.488 5.54545 159.924 5.76278 160.211 6.0554C160.498 6.34517 160.641 6.71875 160.641 7.17614C160.641 7.55114 160.533 7.88636 160.317 8.18182C160.104 8.47727 159.806 8.71023 159.422 8.88068C159.039 9.05114 158.593 9.13636 158.084 9.13636C157.417 9.13636 156.864 8.99148 156.426 8.7017C155.989 8.41193 155.712 7.98864 155.596 7.43182L156.55 7.19318C156.641 7.54545 156.813 7.80966 157.066 7.9858C157.321 8.16193 157.655 8.25 158.067 8.25C158.536 8.25 158.908 8.15057 159.184 7.9517C159.462 7.75 159.601 7.50852 159.601 7.22727C159.601 7 159.522 6.80966 159.363 6.65625C159.203 6.5 158.959 6.38352 158.63 6.30682L157.539 6.05114C156.939 5.90909 156.499 5.68892 156.218 5.39062C155.939 5.08949 155.8 4.71307 155.8 4.26136C155.8 3.89205 155.904 3.56534 156.111 3.28125C156.321 2.99716 156.607 2.77415 156.968 2.61222C157.331 2.45028 157.743 2.36932 158.203 2.36932C158.851 2.36932 159.36 2.51136 159.729 2.79545C160.101 3.07955 160.365 3.45455 160.522 3.92045ZM165.666 9V0.272727H168.615C169.297 0.272727 169.857 0.389204 170.294 0.622159C170.732 0.852272 171.055 1.16903 171.266 1.57244C171.476 1.97585 171.581 2.43466 171.581 2.94886C171.581 3.46307 171.476 3.91903 171.266 4.31676C171.055 4.71449 170.733 5.02699 170.298 5.25426C169.864 5.47869 169.308 5.59091 168.632 5.59091H166.246V4.63636H168.598C169.064 4.63636 169.439 4.56818 169.723 4.43182C170.01 4.29545 170.217 4.10227 170.345 3.85227C170.476 3.59943 170.541 3.2983 170.541 2.94886C170.541 2.59943 170.476 2.29403 170.345 2.03267C170.214 1.77131 170.006 1.5696 169.719 1.42756C169.432 1.28267 169.053 1.21023 168.581 1.21023H166.723V9H165.666ZM169.774 5.07955L171.922 9H170.695L168.581 5.07955H169.774ZM175.88 9.13636C175.249 9.13636 174.705 8.99716 174.248 8.71875C173.793 8.4375 173.442 8.04545 173.195 7.54261C172.951 7.03693 172.828 6.44886 172.828 5.77841C172.828 5.10795 172.951 4.51705 173.195 4.00568C173.442 3.49148 173.786 3.09091 174.226 2.80398C174.669 2.5142 175.186 2.36932 175.777 2.36932C176.118 2.36932 176.455 2.42614 176.787 2.53977C177.12 2.65341 177.422 2.83807 177.695 3.09375C177.968 3.34659 178.185 3.68182 178.347 4.09943C178.509 4.51705 178.59 5.03125 178.59 5.64205V6.06818H173.544V5.19886H177.567C177.567 4.82955 177.493 4.5 177.346 4.21023C177.201 3.92045 176.993 3.69176 176.723 3.52415C176.456 3.35653 176.141 3.27273 175.777 3.27273C175.377 3.27273 175.03 3.37216 174.738 3.57102C174.448 3.76705 174.225 4.02273 174.069 4.33807C173.912 4.65341 173.834 4.99148 173.834 5.35227V5.93182C173.834 6.42614 173.919 6.84517 174.09 7.18892C174.263 7.52983 174.503 7.78977 174.81 7.96875C175.117 8.14489 175.473 8.23295 175.88 8.23295C176.144 8.23295 176.382 8.19602 176.596 8.12216C176.811 8.04545 176.998 7.93182 177.154 7.78125C177.31 7.62784 177.431 7.4375 177.516 7.21023L178.488 7.48295C178.385 7.8125 178.213 8.10227 177.972 8.35227C177.73 8.59943 177.432 8.79261 177.077 8.93182C176.722 9.06818 176.323 9.13636 175.88 9.13636ZM184.756 3.92045L183.853 4.17614C183.796 4.02557 183.712 3.87926 183.601 3.73722C183.493 3.59233 183.346 3.47301 183.158 3.37926C182.971 3.28551 182.73 3.23864 182.438 3.23864C182.037 3.23864 181.703 3.33097 181.436 3.51562C181.172 3.69744 181.04 3.92898 181.04 4.21023C181.04 4.46023 181.131 4.65767 181.313 4.80256C181.495 4.94744 181.779 5.06818 182.165 5.16477L183.137 5.40341C183.722 5.54545 184.158 5.76278 184.445 6.0554C184.732 6.34517 184.875 6.71875 184.875 7.17614C184.875 7.55114 184.767 7.88636 184.551 8.18182C184.338 8.47727 184.04 8.71023 183.657 8.88068C183.273 9.05114 182.827 9.13636 182.319 9.13636C181.651 9.13636 181.098 8.99148 180.661 8.7017C180.223 8.41193 179.946 7.98864 179.83 7.43182L180.784 7.19318C180.875 7.54545 181.047 7.80966 181.3 7.9858C181.556 8.16193 181.89 8.25 182.301 8.25C182.77 8.25 183.142 8.15057 183.418 7.9517C183.696 7.75 183.836 7.50852 183.836 7.22727C183.836 7 183.756 6.80966 183.597 6.65625C183.438 6.5 183.194 6.38352 182.864 6.30682L181.773 6.05114C181.174 5.90909 180.733 5.68892 180.452 5.39062C180.174 5.08949 180.034 4.71307 180.034 4.26136C180.034 3.89205 180.138 3.56534 180.346 3.28125C180.556 2.99716 180.841 2.77415 181.202 2.61222C181.566 2.45028 181.978 2.36932 182.438 2.36932C183.086 2.36932 183.594 2.51136 183.963 2.79545C184.336 3.07955 184.6 3.45455 184.756 3.92045ZM189.134 9.13636C188.503 9.13636 187.959 8.99716 187.501 8.71875C187.047 8.4375 186.696 8.04545 186.449 7.54261C186.205 7.03693 186.082 6.44886 186.082 5.77841C186.082 5.10795 186.205 4.51705 186.449 4.00568C186.696 3.49148 187.04 3.09091 187.48 2.80398C187.923 2.5142 188.44 2.36932 189.031 2.36932C189.372 2.36932 189.709 2.42614 190.041 2.53977C190.374 2.65341 190.676 2.83807 190.949 3.09375C191.222 3.34659 191.439 3.68182 191.601 4.09943C191.763 4.51705 191.844 5.03125 191.844 5.64205V6.06818H186.798V5.19886H190.821C190.821 4.82955 190.747 4.5 190.599 4.21023C190.455 3.92045 190.247 3.69176 189.977 3.52415C189.71 3.35653 189.395 3.27273 189.031 3.27273C188.631 3.27273 188.284 3.37216 187.991 3.57102C187.702 3.76705 187.479 4.02273 187.322 4.33807C187.166 4.65341 187.088 4.99148 187.088 5.35227V5.93182C187.088 6.42614 187.173 6.84517 187.344 7.18892C187.517 7.52983 187.757 7.78977 188.064 7.96875C188.371 8.14489 188.727 8.23295 189.134 8.23295C189.398 8.23295 189.636 8.19602 189.849 8.12216C190.065 8.04545 190.251 7.93182 190.408 7.78125C190.564 7.62784 190.685 7.4375 190.77 7.21023L191.741 7.48295C191.639 7.8125 191.467 8.10227 191.226 8.35227C190.984 8.59943 190.686 8.79261 190.331 8.93182C189.976 9.06818 189.577 9.13636 189.134 9.13636ZM193.374 9V2.45455H194.345V3.44318H194.413C194.533 3.11932 194.749 2.85653 195.061 2.65483C195.374 2.45312 195.726 2.35227 196.118 2.35227C196.192 2.35227 196.284 2.35369 196.395 2.35653C196.506 2.35937 196.589 2.36364 196.646 2.36932V3.39205C196.612 3.38352 196.534 3.37074 196.412 3.35369C196.293 3.33381 196.166 3.32386 196.033 3.32386C195.714 3.32386 195.43 3.39062 195.18 3.52415C194.933 3.65483 194.737 3.83665 194.592 4.0696C194.45 4.29972 194.379 4.5625 194.379 4.85795V9H193.374ZM203.39 2.45455L200.969 9H199.947L197.526 2.45455H198.617L200.424 7.67045H200.492L202.299 2.45455H203.39ZM207.227 9.13636C206.597 9.13636 206.053 8.99716 205.595 8.71875C205.141 8.4375 204.79 8.04545 204.543 7.54261C204.298 7.03693 204.176 6.44886 204.176 5.77841C204.176 5.10795 204.298 4.51705 204.543 4.00568C204.79 3.49148 205.134 3.09091 205.574 2.80398C206.017 2.5142 206.534 2.36932 207.125 2.36932C207.466 2.36932 207.803 2.42614 208.135 2.53977C208.467 2.65341 208.77 2.83807 209.043 3.09375C209.315 3.34659 209.533 3.68182 209.695 4.09943C209.857 4.51705 209.938 5.03125 209.938 5.64205V6.06818H204.892V5.19886H208.915C208.915 4.82955 208.841 4.5 208.693 4.21023C208.548 3.92045 208.341 3.69176 208.071 3.52415C207.804 3.35653 207.489 3.27273 207.125 3.27273C206.724 3.27273 206.378 3.37216 206.085 3.57102C205.795 3.76705 205.572 4.02273 205.416 4.33807C205.26 4.65341 205.182 4.99148 205.182 5.35227V5.93182C205.182 6.42614 205.267 6.84517 205.438 7.18892C205.611 7.52983 205.851 7.78977 206.158 7.96875C206.464 8.14489 206.821 8.23295 207.227 8.23295C207.491 8.23295 207.73 8.19602 207.943 8.12216C208.159 8.04545 208.345 7.93182 208.501 7.78125C208.658 7.62784 208.778 7.4375 208.864 7.21023L209.835 7.48295C209.733 7.8125 209.561 8.10227 209.32 8.35227C209.078 8.59943 208.78 8.79261 208.425 8.93182C208.07 9.06818 207.67 9.13636 207.227 9.13636ZM213.939 9.13636C213.393 9.13636 212.912 8.99858 212.494 8.72301C212.077 8.4446 211.75 8.05256 211.514 7.54688C211.278 7.03835 211.161 6.4375 211.161 5.74432C211.161 5.05682 211.278 4.46023 211.514 3.95455C211.75 3.44886 212.078 3.05824 212.499 2.78267C212.919 2.5071 213.405 2.36932 213.956 2.36932C214.382 2.36932 214.719 2.44034 214.966 2.58239C215.216 2.72159 215.406 2.88068 215.537 3.05966C215.67 3.2358 215.774 3.38068 215.848 3.49432H215.933V0.272727H216.939V9H215.967V7.99432H215.848C215.774 8.11364 215.669 8.2642 215.533 8.44602C215.396 8.625 215.202 8.78551 214.949 8.92756C214.696 9.06676 214.359 9.13636 213.939 9.13636ZM214.075 8.23295C214.479 8.23295 214.82 8.12784 215.098 7.91761C215.376 7.70455 215.588 7.41051 215.733 7.03551C215.878 6.65767 215.95 6.22159 215.95 5.72727C215.95 5.23864 215.879 4.81108 215.737 4.4446C215.595 4.07528 215.385 3.78835 215.107 3.58381C214.828 3.37642 214.484 3.27273 214.075 3.27273C213.649 3.27273 213.294 3.3821 213.01 3.60085C212.729 3.81676 212.517 4.1108 212.375 4.48295C212.236 4.85227 212.166 5.26705 212.166 5.72727C212.166 6.19318 212.237 6.61648 212.379 6.99716C212.524 7.375 212.737 7.67614 213.018 7.90057C213.303 8.12216 213.655 8.23295 214.075 8.23295Z" fill="#525B52"/>
</svg>
