<svg width="14" height="13" viewBox="0 0 14 13" fill="none" xmlns="http://www.w3.org/2000/svg">
<path fill-rule="evenodd" clip-rule="evenodd" d="M6.57462 0.226562C2.98368 0.226562 0.0947266 3.11552 0.0947266 6.70646C0.0947266 9.56841 1.9577 11.9984 4.52266 12.8624C4.84665 12.9164 4.95465 12.7274 4.95465 12.5384C4.95465 12.3764 4.95465 11.9714 4.95465 11.4314C3.14568 11.8364 2.76768 10.5674 2.76768 10.5674C2.47069 9.81141 2.0387 9.62241 2.0387 9.62241C1.4447 9.21742 2.09269 9.21742 2.09269 9.21742C2.74068 9.27142 3.09168 9.89241 3.09168 9.89241C3.65867 10.8914 4.60365 10.5944 4.98165 10.4324C5.03565 10.0004 5.19764 9.73041 5.38664 9.56841C3.95566 9.40642 2.44369 8.83942 2.44369 6.35546C2.44369 5.65347 2.68668 5.05948 3.11868 4.62749C3.06468 4.46549 2.82168 3.8175 3.17268 2.89952C3.17268 2.89952 3.71267 2.73752 4.95465 3.57451C5.46764 3.43951 6.03463 3.35851 6.57462 3.35851C7.11461 3.35851 7.6816 3.43951 8.1946 3.57451C9.43658 2.73752 9.97657 2.89952 9.97657 2.89952C10.3276 3.79051 10.1116 4.43849 10.0306 4.62749C10.4356 5.08648 10.7056 5.65347 10.7056 6.35546C10.7056 8.83942 9.19358 9.37942 7.7356 9.54141C7.9786 9.73041 8.1676 10.1354 8.1676 10.7294C8.1676 11.5934 8.1676 12.2954 8.1676 12.5114C8.1676 12.6734 8.27559 12.8894 8.62659 12.8354C11.1915 11.9984 13.0545 9.56841 13.0545 6.70646C13.0545 3.11552 10.1656 0.226562 6.57462 0.226562Z" fill="#181B18"/>
</svg>
