<svg width="14" height="14" viewBox="0 0 14 14" fill="none" xmlns="http://www.w3.org/2000/svg">
<path d="M6.96761 1.44721C8.77632 1.44721 8.99052 1.45398 9.70503 1.48656C10.1346 1.49182 10.5602 1.5707 10.9631 1.71979C11.2553 1.83248 11.5207 2.00511 11.7421 2.22656C11.9636 2.44802 12.1362 2.71339 12.2489 3.00559C12.398 3.40853 12.4769 3.83406 12.4821 4.26366C12.5144 4.97817 12.5215 5.19237 12.5215 7.00108C12.5215 8.80979 12.5147 9.02398 12.4821 9.7385C12.4769 10.1681 12.398 10.5936 12.2489 10.9966C12.1362 11.2888 11.9636 11.5541 11.7421 11.7756C11.5207 11.997 11.2553 12.1697 10.9631 12.2824C10.5602 12.4315 10.1346 12.5103 9.70503 12.5156C8.99084 12.5479 8.77665 12.5549 6.96761 12.5549C5.15858 12.5549 4.94439 12.5482 4.2302 12.5156C3.80059 12.5103 3.37507 12.4315 2.97213 12.2824C2.67992 12.1697 2.41455 11.997 2.1931 11.7756C1.97164 11.5541 1.79901 11.2888 1.68632 10.9966C1.53724 10.5936 1.45836 10.1681 1.4531 9.7385C1.42084 9.02398 1.41374 8.80979 1.41374 7.00108C1.41374 5.19237 1.42052 4.97817 1.4531 4.26366C1.45836 3.83406 1.53724 3.40853 1.68632 3.00559C1.79901 2.71339 1.97164 2.44802 2.1931 2.22656C2.41455 2.00511 2.67992 1.83248 2.97213 1.71979C3.37507 1.5707 3.80059 1.49182 4.2302 1.48656C4.94471 1.4543 5.1589 1.44721 6.96761 1.44721ZM6.96761 0.226562C5.1289 0.226562 4.89729 0.234304 4.17471 0.267208C3.61247 0.278391 3.05619 0.384847 2.52955 0.582046C2.07777 0.752261 1.66858 1.019 1.33052 1.36366C0.985549 1.70184 0.71858 2.11127 0.548259 2.56334C0.351059 3.08998 0.244604 3.64625 0.23342 4.2085C0.201162 4.93043 0.19342 5.16205 0.19342 7.00076C0.19342 8.83946 0.201162 9.07108 0.234066 9.79366C0.245249 10.3559 0.351704 10.9122 0.548904 11.4388C0.719036 11.8908 0.985782 12.3002 1.33052 12.6385C1.66877 12.9832 2.07819 13.25 2.53019 13.4201C3.05684 13.6173 3.61311 13.7238 4.17536 13.7349C4.89794 13.7672 5.12858 13.7756 6.96826 13.7756C8.80794 13.7756 9.03858 13.7679 9.76116 13.7349C10.3234 13.7238 10.8797 13.6173 11.4063 13.4201C11.8562 13.2457 12.2647 12.9794 12.6058 12.6381C12.9468 12.2968 13.2129 11.8882 13.387 11.4382C13.5842 10.9115 13.6906 10.3553 13.7018 9.79301C13.7341 9.07108 13.7418 8.83946 13.7418 7.00076C13.7418 5.16205 13.7341 4.93043 13.7012 4.20785C13.69 3.64561 13.5835 3.08934 13.3863 2.56269C13.2162 2.11068 12.9494 1.70126 12.6047 1.36301C12.2665 1.01828 11.857 0.751533 11.405 0.581401C10.8784 0.384201 10.3221 0.277746 9.75987 0.266563C9.03794 0.234304 8.80632 0.226562 6.96761 0.226562Z" fill="#181B18"/>
<path d="M6.96803 3.52344C6.28001 3.52344 5.60743 3.72746 5.03536 4.10971C4.46329 4.49195 4.01742 5.03525 3.75412 5.6709C3.49083 6.30655 3.42194 7.00601 3.55616 7.68081C3.69039 8.35561 4.0217 8.97546 4.50821 9.46197C4.99472 9.94847 5.61456 10.2798 6.28937 10.414C6.96417 10.5482 7.66362 10.4794 8.29927 10.2161C8.93493 9.95276 9.47823 9.50689 9.86047 8.93481C10.2427 8.36274 10.4467 7.69017 10.4467 7.00215C10.4467 6.07954 10.0802 5.19471 9.42785 4.54233C8.77546 3.88994 7.89064 3.52344 6.96803 3.52344ZM6.96803 9.26021C6.52143 9.26021 6.08485 9.12778 5.71352 8.87966C5.34218 8.63154 5.05276 8.27888 4.88185 7.86627C4.71094 7.45366 4.66623 6.99964 4.75335 6.56162C4.84048 6.1236 5.05554 5.72125 5.37134 5.40545C5.68713 5.08966 6.08948 4.8746 6.5275 4.78747C6.96552 4.70034 7.41955 4.74506 7.83215 4.91597C8.24476 5.08687 8.59742 5.3763 8.84554 5.74763C9.09366 6.11897 9.22609 6.55554 9.22609 7.00215C9.22609 7.60102 8.98819 8.17537 8.56472 8.59884C8.14125 9.02231 7.56691 9.26021 6.96803 9.26021Z" fill="#181B18"/>
<path d="M10.5835 4.19807C11.0324 4.19807 11.3964 3.83412 11.3964 3.38517C11.3964 2.93621 11.0324 2.57227 10.5835 2.57227C10.1345 2.57227 9.77057 2.93621 9.77057 3.38517C9.77057 3.83412 10.1345 4.19807 10.5835 4.19807Z" fill="#181B18"/>
</svg>
